# xmcd
#
# Track frame offsets:
#	150
#	19099
#	31926
#	49173
#	64974
#	81369
#	95131
#	110891
#	124852
#	143188
#	160943
#	176765
#	191879
#	212391
#	228976
#	242476
#	252652
#	272354
#	288157
#	306496
#	320197
#	333983
#
# Disc length: 4751 seconds
#
# Revision: 0
# Processed by: cddbd v1.5.2PL0 Copyright (c) Steve Scherf et al.
# Submitted via: audiograbber 1.83.01
#
DISCID=50128d16
DTITLE=Glenn Erickson - My Life
DYEAR=2007
DGENRE=Country
TTITLE0=My Life Ml
TTITLE1=Long Gone John Ml
TTITLE2=My Reward Ml
TTITLE3=2nd Fiddle Ml
TTITLE4=Epitaph Ml
TTITLE5=Time Is Tickin' Away Ml
TTITLE6=Santa Ana Blues Ml
TTITLE7=Things I Didn't Do Ml
TTITLE8=If You Could Read My Mind Ml
TTITLE9=Was It Good For You Ml
TTITLE10=She's Gone Ml
TTITLE11=The Way To Long Beach Ml
TTITLE12=The Voice Of Freedom Ml
TTITLE13=Mason-dixon Line Ml
TTITLE14=Twilight Of My Years Ml
TTITLE15=Patches Of Blue Ml
TTITLE16=Her Man Ml
TTITLE17=She Doesn't Need Me Anymore Ml
TTITLE18=King Of His Castle Ml
TTITLE19=Middle Of Nowhere Ml
TTITLE20=More Than Just A Dream Ml
TTITLE21=Can't Make It On My Own Ml
EXTD=
EXTT0=
EXTT1=
EXTT2=
EXTT3=
EXTT4=
EXTT5=
EXTT6=
EXTT7=
EXTT8=
EXTT9=
EXTT10=
EXTT11=
EXTT12=
EXTT13=
EXTT14=
EXTT15=
EXTT16=
EXTT17=
EXTT18=
EXTT19=
EXTT20=
EXTT21=
PLAYORDER=
